# xmcd
#
# Track frame offsets:
#	150
#	16695
#	35995
#	64895
#	81955
#	97810
#	115602
#	135205
#	151427
#	170705
#
# Disc length: 2797 seconds
#
# Revision: 7
# Processed by: cddbd v1.5.2PL0 Copyright (c) Steve Scherf et al.
# Submitted via: EasyCDDAExtractor 15.3.0.1
#
DISCID=760aeb0a
DTITLE=Pandora - (1985-1998) - CD 1
DYEAR=1998
DGENRE=Latin
TTITLE0=Matandome Suavemente
TTITLE1=Solo El Y Yo
TTITLE2=Con Tu Amor
TTITLE3=Mi Fracaso
TTITLE4=Mi Hombre
TTITLE5=No Puedo Dejar De Pensar En Ti
TTITLE6=Un Beso Y Una Flor
TTITLE7=Desde El Dia Que Te Fuiste
TTITLE8=Alguien Llena Mi Lugar
TTITLE9=Popurri Piano (Seria Capaz, Y Ven, Ella Se Lleno De Amor)
EXTD=
EXTT0=
EXTT1=
EXTT2=
EXTT3=
EXTT4=
EXTT5=
EXTT6=
EXTT7=
EXTT8=
EXTT9=
PLAYORDER=
